<!DOCTYPE svg PUBLIC "-//W3C//DTD SVG 1.1//EN" "http://www.w3.org/Graphics/SVG/1.1/DTD/svg11.dtd">
<!-- Uploaded to: SVG Repo, www.svgrepo.com, Transformed by: SVG Repo Mixer Tools -->
<svg height="800px" width="800px" version="1.1" id="_x32_" xmlns="http://www.w3.org/2000/svg" xmlns:xlink="http://www.w3.org/1999/xlink" viewBox="-51.2 -51.2 614.40 614.40" xml:space="preserve" fill="#000000" stroke="#000000">
<g id="SVGRepo_bgCarrier" stroke-width="0"/>
<g id="SVGRepo_tracerCarrier" stroke-linecap="round" stroke-linejoin="round" stroke="#CCCCCC" stroke-width="5.12"/>
<g id="SVGRepo_iconCarrier"> <style type="text/css"> .st0{fill:#E26A0B;} </style> <g> <path class="st0" d="M57.074,93.714C24.618,133.458,3.899,183.005,0,237.326h128.103C123.306,180.475,96.913,129.901,57.074,93.714 z"/> <path class="st0" d="M0,274.674c3.899,54.321,24.61,103.86,57.074,143.595c39.839-36.171,66.232-86.744,71.029-143.595H0z"/> <path class="st0" d="M429.25,66.55C387.836,28.66,334.111,4.273,274.675,0v237.326h71.738 C351.266,169.844,382.202,109.5,429.25,66.55z"/> <path class="st0" d="M512,237.326c-3.914-54.336-24.618-103.883-57.098-143.635c-39.847,36.195-66.224,86.8-71.014,143.635H512z"/> <path class="st0" d="M165.579,237.326h71.746V0C177.881,4.273,124.149,28.676,82.734,66.558 C129.75,109.5,160.71,169.813,165.579,237.326z"/> <path class="st0" d="M454.902,418.31c32.479-39.752,53.199-89.306,57.098-143.635H383.889 C388.679,331.51,415.056,382.114,454.902,418.31z"/> <path class="st0" d="M82.734,445.442c41.415,37.882,95.146,62.277,154.591,66.558V274.674h-71.746 C160.71,342.187,129.75,402.5,82.734,445.442z"/> <path class="st0" d="M346.413,274.674h-71.738V512c59.436-4.281,113.153-28.668,154.576-66.542 C382.202,402.5,351.266,342.147,346.413,274.674z"/> </g> </g>
</svg>